<?xml version="1.0" encoding="UTF-8"?>
<!DOCTYPE svg PUBLIC "-//W3C//DTD SVG 1.1//EN" "http://www.w3.org/Graphics/SVG/1.1/DTD/svg11.dtd">
<!-- Creator: CorelDRAW -->
<svg xmlns="http://www.w3.org/2000/svg" xml:space="preserve" width="6.72in" height="6.72in" style="shape-rendering:geometricPrecision; text-rendering:geometricPrecision; image-rendering:optimizeQuality; fill-rule:evenodd; clip-rule:evenodd"
viewBox="0 0 6.72 6.72"
 xmlns:xlink="http://www.w3.org/1999/xlink">
 <defs>
  <style type="text/css">
   <![CDATA[
    .fil2 {fill:white}
    .fil1 {fill:white;fill-rule:nonzero}
    .fil0 {fill:url(#id0)}
   ]]>
  </style>
  <linearGradient id="id0" gradientUnits="userSpaceOnUse" x1="1.38953" y1="-0.0529488" x2="5.33047" y2="6.77295">
   <stop offset="0" style="stop-color:#444FF5"/>
   <stop offset="0.490196" style="stop-color:#21BFDB"/>
   <stop offset="1" style="stop-color:#1DABB6"/>
  </linearGradient>
 </defs>
 <g id="Layer_x0020_1">
  <metadata id="CorelCorpID_0Corel-Layer"/>
  <path class="fil0" d="M6.31603 1.65333c0.942567,1.63257 0.383209,3.72013 -1.24937,4.6627 -1.63257,0.942567 -3.72013,0.383209 -4.6627,-1.24937 -0.942567,-1.63257 -0.383209,-3.72013 1.24937,-4.6627 1.63257,-0.942567 3.72013,-0.383209 4.6627,1.24937z"/>
  <path class="fil1" d="M3.19813 4.22315l0.303496 0c0.035685,0 0.0646142,0.0289331 0.0646142,0.0646181l0 0.517551 0.461441 0c0.035685,0 0.0646142,0.0289331 0.0646142,0.0646181l0 0.273504c0,0.0356811 -0.0289291,0.0646142 -0.0646142,0.0646142l-1.33537 0c-0.035685,0 -0.0646142,-0.0289331 -0.0646142,-0.0646142l0 -0.273504c0,-0.035685 0.0289291,-0.0646181 0.0646142,-0.0646181l0.441205 0 0 -0.517551c0,-0.035685 0.0289331,-0.0646181 0.0646142,-0.0646181zm0.238882 0.129232l-0.174264 0 0 0.517555c0,0.035685 -0.0289331,0.0646142 -0.0646181,0.0646142l-0.441205 0 0 0.144272 1.20614 0 0 -0.144272 -0.461441 0c-0.035685,0 -0.0646142,-0.0289291 -0.0646142,-0.0646142l0 -0.517555z"/>
  <path class="fil1" d="M3.07559 2.19111l0.99774 0c0.035685,0 0.0646142,0.0289291 0.0646142,0.0646142 0,0.00768898 -0.00134646,0.0150669 -0.00381102,0.0219055l-0.186724 0.727457 -0.0623465 -0.0159016 0.0625866 0.016063c-0.00759843,0.0296142 -0.0345394,0.0491417 -0.0638386,0.0485512l-0.669453 0c-0.0322244,0 -0.058937,-0.0235906 -0.063815,-0.0544449l-0.185535 -0.722839c-0.000464567,-0.00135433 -0.00088189,-0.00272835 -0.00125984,-0.00412992l-0.000165354 -0.000614173 -7.48031e-005 1.9685e-005c-0.000204724,-0.000811024 -0.000393701,-0.00162205 -0.000566929,-0.00243307l-0.060437 -0.225551 -0.255843 0c-0.035685,0 -0.0646142,-0.0289331 -0.0646142,-0.0646142 0,-0.035685 0.0289291,-0.0646181 0.0646142,-0.0646181l0.305335 0c0.0311024,0 0.0570709,0.0219764 0.0632283,0.051252l0.0603661 0.225283zm0.914732 0.129228l-0.881217 0 0.155094 0.604228 0.571024 0 0.155098 -0.604228z"/>
  <path class="fil2" d="M3.2987 3.10182c0.045126,0 0.0817126,0.0365827 0.0817126,0.0817126 0,0.045126 -0.0365866,0.0817126 -0.0817126,0.0817126 -0.0451299,0 -0.0817126,-0.0365866 -0.0817126,-0.0817126 0,-0.0451299 0.0365827,-0.0817126 0.0817126,-0.0817126z"/>
  <path class="fil2" d="M3.80074 3.10182c-0.0451299,0 -0.0817126,0.0365827 -0.0817126,0.0817126 0,0.045126 0.0365827,0.0817126 0.0817126,0.0817126 0.045126,0 0.0817126,-0.0365866 0.0817126,-0.0817126 0,-0.0451299 -0.0365866,-0.0817126 -0.0817126,-0.0817126z"/>
  <path class="fil1" d="M3.37158 2.42405c-0.035685,0 -0.0646181,0.0289291 -0.0646181,0.0646142 0,0.035685 0.0289331,0.0646142 0.0646181,0.0646142l0.288976 0c0.035685,0 0.0646181,-0.0289291 0.0646181,-0.0646142 0,-0.035685 -0.0289331,-0.0646142 -0.0646181,-0.0646142l-0.288976 0z"/>
  <path class="fil1" d="M3.41926 2.60217c-0.035685,0 -0.0646142,0.0289331 -0.0646142,0.0646181 0,0.0356811 0.0289291,0.0646142 0.0646142,0.0646142l0.19363 0c0.035685,0 0.0646142,-0.0289331 0.0646142,-0.0646142 0,-0.035685 -0.0289291,-0.0646181 -0.0646142,-0.0646181l-0.19363 0z"/>
  <path class="fil1" d="M1.43463 1.51194l3.85073 0c0.0389134,0 0.0744173,0.0159764 0.100307,0.041752l0.000122047 0.000129921 7.87402e-006 0 0.000129921 -0.000129921c0.00160236,0.0016063 0.0031063,0.00327165 0.00450787,0.00499606 0.0231102,0.0254016 0.0372362,0.0589724 0.0372362,0.095563l0 2.55582c0,0.0389134 -0.0159764,0.0744173 -0.041752,0.100307l-0.000129921 0.000125984 -3.93701e-006 3.93701e-006 0.000133858 0.000129921c-0.0016063,0.00160236 -0.00327559,0.0031063 -0.00499606,0.00450787 -0.0254016,0.0231102 -0.0589764,0.0372362 -0.095563,0.0372362l-3.85073 0c-0.0389134,0 -0.0744173,-0.0159764 -0.100307,-0.041752l-0.000122047 -0.000125984 -7.87402e-006 -3.93701e-006 -0.000129921 0.000129921c-0.00160236,-0.0016063 -0.0031063,-0.00327165 -0.00450787,-0.00499606 -0.0231102,-0.0254016 -0.0372362,-0.0589724 -0.0372362,-0.095563l0 -2.55582c0,-0.0389134 0.0159764,-0.0744173 0.041752,-0.100307l0.000129921 -0.000122047 3.93701e-006 -7.87402e-006 -0.000133858 -0.000129921c0.0016063,-0.00160236 0.00327559,-0.0031063 0.00499606,-0.00450787 0.0254016,-0.0231102 0.0589764,-0.0372362 0.095563,-0.0372362zm3.85073 0.129232l-3.85073 0c-0.00297244,0 -0.00565748,0.000901575 -0.00776378,0.0024252 -0.000464567,0.0005 -0.000937008,0.000988189 -0.0014252,0.00147638l-0.045685 -0.0456969 0.045437 0.045685c-0.00224803,0.00224803 -0.00364173,0.00549213 -0.00364173,0.00918898l0 2.55582c0,0.00297638 0.000901575,0.00565748 0.0024252,0.00776378 0.0005,0.000468504 0.000988189,0.000937008 0.00147638,0.0014252l-0.0456969 0.045685 0.045685 -0.0454331c0.00224803,0.00224409 0.00549213,0.0036378 0.00918898,0.0036378l3.85073 0c0.00297244,0 0.00565748,-0.000901575 0.00776378,-0.0024252 0.000464567,-0.0005 0.000937008,-0.000988189 0.0014252,-0.00147638l0.045685 0.0456969 -0.045437 -0.045685c0.00224803,-0.00224409 0.00364173,-0.00549213 0.00364173,-0.00918898l0 -2.55582c0,-0.00297638 -0.000901575,-0.00565748 -0.0024252,-0.00776378 -0.0005,-0.000468504 -0.000988189,-0.000937008 -0.00147638,-0.0014252l0.0456969 -0.045685 -0.045685 0.0454331c-0.00224803,-0.00224409 -0.00549213,-0.0036378 -0.00918898,-0.0036378z"/>
  <path class="fil1" d="M3.36 3.78267c0.0494685,0 0.0942598,0.0200591 0.126681,0.0524803 0.0324252,0.0324213 0.0524803,0.0772165 0.0524803,0.126685 0,0.0494724 -0.0200551,0.0942638 -0.0524803,0.126685 -0.0324213,0.0324213 -0.0772126,0.0524803 -0.126681,0.0524803 -0.0494685,0 -0.0942598,-0.0200591 -0.126681,-0.0524803 -0.0324252,-0.0324213 -0.0524803,-0.0772126 -0.0524803,-0.126685 0,-0.0494685 0.0200551,-0.0942638 0.0524803,-0.126685 0.0324213,-0.0324213 0.0772126,-0.0524803 0.126681,-0.0524803zm0.035311 0.14385c-0.00902756,-0.0090315 -0.0215157,-0.0146181 -0.035311,-0.0146181 -0.0137953,0 -0.0262835,0.00558661 -0.035311,0.0146181 -0.0090315,0.0090315 -0.014622,0.0215236 -0.014622,0.035315 0,0.0137953 0.00559055,0.0262835 0.014622,0.035315 0.00902756,0.0090315 0.0215157,0.014622 0.035311,0.014622 0.0137953,0 0.0262835,-0.00559055 0.035311,-0.014622 0.0090315,-0.0090315 0.014622,-0.0215197 0.014622,-0.035315 0,-0.0137913 -0.00559055,-0.0262835 -0.014622,-0.035315z"/>
  <path class="fil1" d="M1.35694 3.58138c-0.035685,0 -0.0646181,0.0289291 -0.0646181,0.0646142 0,0.035685 0.0289331,0.0646142 0.0646181,0.0646142l4.00612 0c0.035685,0 0.0646181,-0.0289291 0.0646181,-0.0646142 0,-0.035685 -0.0289331,-0.0646142 -0.0646181,-0.0646142l-4.00612 0z"/>
 </g>
</svg>
